# xmcd CD database file
#
# Track frame offsets:
#	150
#	19747
#	45867
#	65430
#
# Disc length: 1220 seconds
#
# Revision: 0
# Processed by: cddbd v1.5PL3 Copyright (c) Steve Scherf et al.
# Submitted via: CDex 1.50beta9
#
DISCID=2604c204
DTITLE=小泉今日子 - 優しい雨
DYEAR=1993
DGENRE=J-POP
TTITLE0=優しい雨
TTITLE1=永遠の友達
TTITLE2=優しい雨　カラオケ
TTITLE3=永遠の友達　カラオケ
EXTD=YEAR: 1993
EXTT0=
EXTT1=
EXTT2=
EXTT3=
PLAYORDER=
